<?xml version="1.0" standalone="no"?>
<!DOCTYPE svg PUBLIC "-//W3C//DTD SVG 20010904//EN"
 "http://www.w3.org/TR/2001/REC-SVG-20010904/DTD/svg10.dtd">
<svg version="1.0" xmlns="http://www.w3.org/2000/svg"
 width="1120.000000pt" height="1120.000000pt" viewBox="0 0 1120.000000 1120.000000"
 preserveAspectRatio="xMidYMid meet">
<metadata>
Created by potrace 1.14, written by Peter Selinger 2001-2017
</metadata>
<g transform="translate(0.000000,1120.000000) scale(0.100000,-0.100000)"
fill="#000000" stroke="none">
<path d="M9625 7828 c-3 -7 -4 -1259 -3 -2783 l3 -2770 370 0 370 0 3 1463 2
1462 415 0 415 0 0 315 0 315 -415 0 -415 0 -2 1003 -3 1002 -368 3 c-289 2
-369 0 -372 -10z"/>
<path d="M770 6075 l0 -1465 700 0 700 0 0 -455 0 -455 -1085 0 -1085 0 0
-310 0 -310 2560 0 2560 0 0 310 0 310 -1095 0 -1095 0 0 455 0 455 700 0 700
0 0 1465 0 1465 -370 0 -370 0 0 -450 0 -450 -1040 0 -1040 0 -2 448 -3 447
-367 3 -368 2 0 -1465z m2820 -460 l0 -405 -1045 0 -1045 0 0 405 0 405 1045
0 1045 0 0 -405z"/>
<path d="M7325 7504 c-669 -119 -1076 -672 -1181 -1604 -16 -148 -19 -599 -4
-751 56 -567 229 -1001 512 -1288 183 -185 394 -295 663 -347 109 -20 375 -23
485 -5 496 83 849 399 1052 939 65 175 119 415 150 677 19 163 16 645 -6 810
-72 552 -230 935 -499 1212 -191 196 -417 314 -689 358 -117 19 -375 18 -483
-1z m330 -624 c222 -32 381 -197 490 -510 82 -236 110 -463 110 -875 -1 -394
-28 -610 -106 -838 -121 -355 -311 -527 -579 -527 -193 0 -360 103 -469 287
-171 289 -251 810 -211 1358 43 574 199 937 456 1061 100 48 190 61 309 44z"/>
</g>
</svg>
